<svg width="35" height="35" viewBox="0 0 35 35" fill="none" xmlns="http://www.w3.org/2000/svg">
<circle cx="17.5" cy="17.5" r="17.5" fill="#FCFCFC" fill-opacity="0.4"/>
<path d="M23 24V22.5556C23 21.7894 22.7103 21.0546 22.1945 20.5128C21.6788 19.971 20.9793 19.6667 20.25 19.6667H14.75C14.0207 19.6667 13.3212 19.971 12.8055 20.5128C12.2897 21.0546 12 21.7894 12 22.5556V24M20.25 13.8889C20.25 15.4844 19.0188 16.7778 17.5 16.7778C15.9812 16.7778 14.75 15.4844 14.75 13.8889C14.75 12.2934 15.9812 11 17.5 11C19.0188 11 20.25 12.2934 20.25 13.8889Z" stroke="#FCFCFC" stroke-width="2" stroke-linecap="round" stroke-linejoin="round"/>
</svg>
